<svg width="68" height="34" viewBox="0 0 68 34" fill="none" xmlns="http://www.w3.org/2000/svg">
<rect width="68" height="34" rx="17" fill="#F6F7F9"/>
<path d="M45.265 17.7418C45.4894 20.952 48.2133 23.5637 51.4734 23.7071C53.7735 23.8068 55.8305 22.7347 57.0647 21.0455C57.5758 20.3536 57.3015 19.8923 56.4476 20.0481C56.0299 20.1229 55.5998 20.1541 55.151 20.1354C52.1029 20.0107 49.6096 17.4613 49.5971 14.4506C49.5909 13.6403 49.7592 12.8736 50.0646 12.1754C50.4012 11.4025 49.9961 11.0347 49.2169 11.3651C46.7485 12.4061 45.0593 14.8932 45.265 17.7418Z" stroke="#90A3BF" stroke-width="1.24667" stroke-linecap="round" stroke-linejoin="round"/>
<rect x="3" y="3" width="28" height="28" rx="14" fill="#3563E9"/>
<path d="M17.0003 21.3336C19.3936 21.3336 21.3337 19.3935 21.3337 17.0003C21.3337 14.607 19.3936 12.6669 17.0003 12.6669C14.6071 12.6669 12.667 14.607 12.667 17.0003C12.667 19.3935 14.6071 21.3336 17.0003 21.3336Z" fill="white"/>
<path d="M21.7597 21.7598L21.673 21.6731M21.673 12.3265L21.7597 12.2398L21.673 12.3265ZM12.2397 21.7598L12.3263 21.6731L12.2397 21.7598ZM16.9997 10.3865V10.3331V10.3865ZM16.9997 23.6665V23.6131V23.6665ZM10.3863 16.9998H10.333H10.3863ZM23.6663 16.9998H23.613H23.6663ZM12.3263 12.3265L12.2397 12.2398L12.3263 12.3265Z" stroke="white" stroke-width="1.87" stroke-linecap="round" stroke-linejoin="round"/>
</svg>
